<?xml version="1.0" standalone="no"?><!DOCTYPE svg PUBLIC "-//W3C//DTD SVG 1.1//EN" "http://www.w3.org/Graphics/SVG/1.1/DTD/svg11.dtd"><svg t="1584523540118" class="icon" viewBox="0 0 1024 1024" version="1.1" xmlns="http://www.w3.org/2000/svg" p-id="1421" xmlns:xlink="http://www.w3.org/1999/xlink" width="200" height="200"><defs><style type="text/css"></style></defs><path d="M271.59 88.32h571.485c35.312 0 106.68-11.92 106.68 42.332V695.48c0 19.953 1.352 39.885-17.04 53.637-12.943 9.682-28.933 8.013-44.052 8.013H252.831c-32.932 0-72.832 6.2-105.175-2.114-40.218-10.348-28.57-79.16-28.57-109.282V130.125c0-33.02-51.2-33.02-51.2 0v558.93c0 15.887-0.123 30.868 2.284 46.658 6.589 43.167 51.128 72.617 92.375 72.617h737.817c62.848 0 100.588-45.117 100.588-105.58V132.952c0-43.428-26.046-77.21-66.156-91.889-15.001-5.488-33.249-3.947-49.121-3.947H271.585c-33.013 0.005-33.013 51.205 0.005 51.205zM534.42 992.988V781.143" p-id="1422" fill="#cdcdcd"></path><path d="M560.02 992.988V781.143c0-33.014-51.19-33.014-51.19 0v211.845c0 33.019 51.19 33.019 51.19 0zM202.885 992.988h663.081" p-id="1423" fill="#cdcdcd"></path><path d="M202.885 1018.588h663.076c33.014 0 33.014-51.2 0-51.2H202.885c-33.014 0-33.014 51.2 0 51.2zM312.545 384.507v216.069M286.945 384.507v216.069c0 33.014 51.2 33.014 51.2 0v-216.07c0-33.018-51.2-33.018-51.2 0zM626.785 384.507v216.069M601.185 384.507v216.069c0 33.014 51.2 33.014 51.2 0v-216.07c0-33.018-51.2-33.018-51.2 0zM769.306 384.507v216.069M743.706 384.507v216.069c0 33.014 51.2 33.014 51.2 0v-216.07c0-33.018-51.2-33.018-51.2 0zM480.568 264.504v336.072M454.968 264.504v336.072c0 33.014 51.195 33.014 51.195 0V264.504c0-33.019-51.195-33.019-51.195 0z" p-id="1424" fill="#cdcdcd"></path></svg>