<?xml version="1.0" standalone="no"?><!DOCTYPE svg PUBLIC "-//W3C//DTD SVG 1.1//EN" "http://www.w3.org/Graphics/SVG/1.1/DTD/svg11.dtd"><svg t="1584676733513" class="icon" viewBox="0 0 1024 1024" version="1.1" xmlns="http://www.w3.org/2000/svg" p-id="2658" xmlns:xlink="http://www.w3.org/1999/xlink" width="200" height="200"><defs><style type="text/css"></style></defs><path d="M832.64 898.432H594.56a75.072 75.072 0 0 1-75.584-74.496V655.36A75.584 75.584 0 0 1 594.56 582.016h238.016a76.16 76.16 0 0 1 75.584 75.584V825.6a75.584 75.584 0 0 1-75.584 72.832zM594.56 640.256a17.92 17.92 0 0 0-17.92 17.344V825.6a17.92 17.92 0 0 0 17.92 17.344h238.016c9.6 0 17.344-7.744 17.344-17.344v-168a17.344 17.344 0 0 0-17.344-17.344H594.56z" p-id="2659" fill="#cdcdcd"></path><path d="M811.904 637.44a28.544 28.544 0 0 1-28.544-29.12V540.544a71.68 71.68 0 1 0-142.784 0v67.776a29.12 29.12 0 1 1-56 0V540.544a129.344 129.344 0 1 1 258.112 0v67.776a29.12 29.12 0 0 1-30.72 29.12zM673.024 723.136a40.32 40.32 0 1 0 80.64 0 40.32 40.32 0 1 0-80.64 0z" p-id="2660" fill="#cdcdcd"></path><path d="M714.496 825.024a29.12 29.12 0 0 1-29.12-29.12v-50.368a29.12 29.12 0 0 1 56 0v50.368c0.32 15.36-11.52 28.224-26.88 29.12z m-238.08-529.152c-39.68 0-391.936 0-391.936-112s351.68-112 392-112c40.32 0 392 0 392 112s-351.68 112-392 112z m-330.88-112c24.064 20.672 143.36 52.608 330.88 52.608 187.648 0 306.944-31.936 331.008-52.608-24.064-20.736-143.36-53.248-330.944-53.248s-306.88 34.176-330.944 54.912v-1.664zM399.168 512C303.424 506.432 85.12 486.272 85.12 400a29.12 29.12 0 1 1 56 0c7.232 9.536 83.968 42.56 257.024 50.944a28.032 28.032 0 0 1 27.456 30.272 28.544 28.544 0 0 1-26.368 30.784z m-41.408 212.8c-125.44-9.536-272.704-35.84-272.704-105.856a29.12 29.12 0 0 1 56 0c6.144 7.872 69.44 36.992 216.704 48.192a29.12 29.12 0 0 1 0 56v1.664z" p-id="2661" fill="#cdcdcd"></path><path d="M416.576 944.896c-99.2-3.392-330.432-21.824-330.432-112V185.536a29.12 29.12 0 0 1 56 0v650.176c8.96 12.288 99.712 44.8 274.432 51.52a29.12 29.12 0 0 1 27.968 30.208 28.544 28.544 0 0 1-27.968 27.456z m422.208-572.864a28.544 28.544 0 0 1-28.544-28.032V185.536a29.12 29.12 0 1 1 56 0v158.464a29.12 29.12 0 0 1-27.456 28.032z" p-id="2662" fill="#cdcdcd"></path></svg>