<?xml version="1.0" standalone="no"?><!DOCTYPE svg PUBLIC "-//W3C//DTD SVG 1.1//EN" "http://www.w3.org/Graphics/SVG/1.1/DTD/svg11.dtd"><svg t="1584525098477" class="icon" viewBox="0 0 1433 1024" version="1.1" xmlns="http://www.w3.org/2000/svg" p-id="5217" xmlns:xlink="http://www.w3.org/1999/xlink" width="279.8828125" height="200"><defs><style type="text/css"></style></defs><path d="M717.356032 449.8688c-27.648 77.7984-100.608 125.5424-100.608 125.5424s-6.2976 59.392-6.6304 73.3184c1.2288 5.5808 2.7904 96.7424 182.8608 123.008 106.5472 19.968 182.4256 52.352 200.3712 116.0704 33.9456 32.1536 22.1696 132.7104 22.1696 132.7104H0.095232s-2.56-100.5568 31.3856-132.7104c33.9456-32.128 38.144-89.7792 218.2912-116.0704 180.0704-26.2656 158.72-120.0128 164.608-117.12-1.0752-35.5328-4.5824-85.4016-4.5824-85.4016s-84.992-39.2448-112.64-117.0176c-57.9584-23.04-50.304-37.8624-55.936-67.584 0 0-17.6128-120.6784 21.5296-118.1952 0 0 47.4112 0 41.1648-27.6992-2.048-46.1312 1.664-47.0016 4.7616-77.7472 3.1232-30.7712 26.2144-110.7456 91.5456-123.0592 65.3312-12.288 13.568-6.144 35.328-9.216 21.8112-3.072 15.5904-15.36 56.0384-15.36L518.034432 0c40.448 0 56.7808 90.5728 78.5408 93.696 21.8368 3.0208 27.008-9.472 71.5776-1.2288 65.3568 12.288 43.4688 14.8992 46.592 45.6448 3.1232 30.7968 8.3712 50.6112 2.176 78.336-6.2464 27.6736 51.6096 24.576 51.6096 24.576 46.6688 0 32 146.6368 32 146.6368-7.168 31.2576-39.7312 35.072-83.2 62.208m363.5968 570.112s0.384-46.1056-36.9152-149.9648c-27.0592-39.7312-65.152-75.776-118.7328-106.88a2641.4848 2641.4848 0 0 0-3.5072-68.4288s-65.152-30.0288-86.3232-89.6768c-44.416-17.664-38.528-29.0048-42.8544-51.7888 0 0-13.4912-92.4928 16.512-90.5728 0 0 25.5488 0 20.7616-21.2224-1.5872-35.328-5.12-103.8848-2.7392-127.488 2.4064-23.5776 11.2384-87.2448 61.2864-96.6656 50.0736-9.4208 36.4288-4.736 53.0944-7.04 16.6912-2.3808 11.9296-11.8016 42.9312-11.8016l64.384-10.24c31.0016 0 50.8672 42.752 67.5584 45.1072 16.6656 2.3552 11.8272-7.168 46.0032-0.896 50.0992 9.472 43.0848 76.8512 45.4912 100.4288 2.4064 23.552 3.9936 92.0832-0.768 113.3312-4.7872 21.2224 10.112 18.8672 10.112 18.8672 35.7888 0 33.3824 90.5472 33.3824 90.5472-5.504 23.9616-18.176 26.88-51.5072 47.6672-21.1456 59.5968-77.568 96.2048-77.568 96.2048s-4.864 45.4912-5.0688 56.2176c0.9216 4.224-26.2912 74.112 111.7184 94.208 137.984 20.1472 156.4672 55.6544 178.2784 83.968C1420.844032 952.576 1433.644032 1024 1433.644032 1024s-172.8-4.0192-352.7168-4.0192" p-id="5218" fill="#cdcdcd"></path></svg>