<?xml version="1.0" standalone="no"?><!DOCTYPE svg PUBLIC "-//W3C//DTD SVG 1.1//EN" "http://www.w3.org/Graphics/SVG/1.1/DTD/svg11.dtd"><svg t="1584523493841" class="icon" viewBox="0 0 1024 1024" version="1.1" xmlns="http://www.w3.org/2000/svg" p-id="622" xmlns:xlink="http://www.w3.org/1999/xlink" width="200" height="200"><defs><style type="text/css"></style></defs><path d="M883.24096 154.92096h-346.04032v-38.01088a25.1904 25.1904 0 0 0-50.3808 0v38.016h-346.0608c-31.54432 0-57.10848 25.56928-57.10848 57.10848v470.30272c0 31.53408 25.56928 57.10336 57.10848 57.10336h346.05568v28.72832l-156.40576 118.51776a25.16992 25.16992 0 0 0-4.59264 35.072 25.17504 25.17504 0 0 0 35.01568 5.0688l125.98784-95.46752v36.44928a25.1904 25.1904 0 0 0 50.3808 0v-36.44928l125.9776 95.46752a25.1648 25.1648 0 0 0 35.2768-4.85888 25.20064 25.20064 0 0 0 4.8896-18.65216 25.23648 25.23648 0 0 0-9.74848-16.62976l-156.39552-118.51776v-28.72832h346.04032c31.54944 0 57.10848-25.56928 57.10848-57.10336V212.02944c0-31.5392-25.55904-57.10848-57.10848-57.10848z m6.74816 527.41632a6.7584 6.7584 0 0 1-6.74816 6.74816H140.75904a6.76352 6.76352 0 0 1-6.74816-6.74816V212.02944a6.7584 6.7584 0 0 1 6.74816-6.74816h742.48192c3.712 0 6.74816 3.03104 6.74816 6.74816v470.30784z m-112.59392-326.25152l-183.45984 148.36224-194.03264-131.66592a25.16992 25.16992 0 0 0-30.99136 2.11968l-154.97728 139.4944a25.14944 25.14944 0 0 0-1.87392 35.55328 25.18528 25.18528 0 0 0 35.56864 1.87392l140.31872-126.2848 193.15712 131.06688a25.2416 25.2416 0 0 0 29.99296-1.25952l197.95968-160.08704a25.20576 25.20576 0 0 0 3.75296-35.42016 25.15968 25.15968 0 0 0-16.94208-9.21088 25.11872 25.11872 0 0 0-18.47296 5.45792z" fill="#dbdbdb" p-id="623"></path></svg>